info, sample..
 
http://www.btarena.org/movies/dvdrip/the-hangover-part-ii-2011-dvdrip-xvid-ltw


The Hangover Part II (2011)
Genre: Comedy 
Ratings: 6.9/10 from 59,501 users 


Two years after the bachelor party in Las Vegas, Phil, Stu, Alan, and Doug jet to Thailand for Stu\\\'s wedding. Stu\\\'s plan for a subdued pre-wedding brunch, however, goes seriously awry. 


Video
ID                               : 0
Format                           : MPEG-4 Visual
Format profile                   : Advanced Simple@L5
Format settings, BVOP            : 1
Format settings, QPel            : No
Format settings, GMC             : No warppoints
Format settings, Matrix          : Custom
Codec ID                         : XVID
Codec ID/Hint                    : XviD
Duration                         : 1h 37mn
Bit rate                         : 1 950 Kbps
Width                            : 672 pixels
Height                           : 288 pixels
Display aspect ratio             : 2.35:1
Frame rate                       : 29.970 fps
Color space                      : YUV
Chroma subsampling               : 4:2:0
Bit depth                        : 8 bits
Scan type                        : Progressive
Compression mode                 : Lossy
Bits/(Pixel*Frame)               : 0.336
Stream size                      : 1.33 GiB (91%)
Writing library                  : XviD 1.2.1 (UTC 2008-12-04)

Audio
ID                               : 1
Format                           : AC-3
Format/Info                      : Audio Coding 3
Mode extension                   : CM (complete main)
Codec ID                         : 2000
Duration                         : 1h 37mn
Bit rate mode                    : Constant
Bit rate                         : 192 Kbps
Channel(s)                       : 2 channels
Channel positions                : Front: L R
Sampling rate                    : 48.0 KHz
Bit depth                        : 16 bits
Compression mode                 : Lossy
Stream size                      : 134 MiB (9%)
Alignment                        : Split accross interleaves
Interleave, duration             : 96 ms (2.88 video frames)
Interleave, preload duration     : 96 ms
Language                         : English


SCREENS

